<svg width="43" height="43" viewBox="0 0 43 43" fill="none" xmlns="http://www.w3.org/2000/svg">
<rect width="43" height="43" fill="#313131"/>
<path d="M3.4 12.528H8.368C10.56 12.528 12.368 12.96 13.792 13.824C15.232 14.688 16.28 15.8 16.936 17.16C17.592 18.52 17.92 19.968 17.92 21.504C17.92 23.2 17.52 24.696 16.72 25.992C15.936 27.272 14.88 28.264 13.552 28.968C12.224 29.656 10.776 30 9.208 30H3.4V12.528ZM8.704 27.312C9.952 27.312 11.048 27.08 11.992 26.616C12.952 26.152 13.696 25.472 14.224 24.576C14.768 23.664 15.04 22.576 15.04 21.312C15.04 19.936 14.744 18.792 14.152 17.88C13.576 16.952 12.832 16.272 11.92 15.84C11.024 15.408 10.096 15.192 9.136 15.192H6.208V27.312H8.704ZM35.8658 30H33.0578V22.56H24.4658V30H21.6578V12.528H24.4658V19.896H33.0578V12.528H35.8658V30Z" fill="white"/>
</svg>
